<svg aria-hidden="true" style="position: absolute; width: 0; height: 0; overflow: hidden;" version="1.1" xmlns="http://www.w3.org/2000/svg" xmlns:xlink="http://www.w3.org/1999/xlink">
<defs>
<symbol id="icon-external-link" viewBox="0 0 32 32">
<path fill="none" stroke="#c8c7d8" style="stroke: var(--color2, #c8c7d8)" stroke-linejoin="round" stroke-linecap="round" stroke-miterlimit="4" stroke-width="4" d="M24 17.334v8c-0.001 1.472-1.194 2.665-2.666 2.666h-14.668c-1.472-0.001-2.665-1.194-2.666-2.666v-14.668c0-1.472 1.194-2.666 2.666-2.666v0h8M20 4h8v8M13.334 18.666l14.666-14.666"></path>
</symbol>
<symbol id="icon-arrow-right" viewBox="0 0 32 32">
<path  d="M19.414 27.414l10-10c0.781-0.781 0.781-2.047 0-2.828l-10-10c-0.781-0.781-2.047-0.781-2.828 0s-0.781 2.047 0 2.828l6.586 6.586h-19.172c-1.105 0-2 0.895-2 2s0.895 2 2 2h19.172l-6.586 6.586c-0.39 0.39-0.586 0.902-0.586 1.414s0.195 1.024 0.586 1.414c0.781 0.781 2.047 0.781 2.828 0z"></path>
</symbol>
<symbol id="icon-logo" viewBox="0 0 54 32">
<path fill="#6966ff" style="fill: var(--color3, #6966ff)" d="M0 29.646c0.151 1.012 1.121 1.918 2.575 1.918 1.994 0 2.78-1.326 2.78-2.781v-4.73h-1.379v0.625c-0.183-0.356-0.668-0.722-1.508-0.722-1.455 0-2.468 1.185-2.468 2.586 0 1.488 1.056 2.575 2.468 2.575 0.765 0 1.261-0.334 1.476-0.679v0.388c0 1.024-0.507 1.476-1.412 1.476-0.679 0-1.142-0.42-1.239-1.002l-1.293 0.345zM2.716 27.889c-0.744 0-1.272-0.517-1.272-1.347 0-0.819 0.561-1.336 1.272-1.336 0.69 0 1.25 0.517 1.25 1.336s-0.517 1.347-1.25 1.347zM8.25 24.053h-1.434v5.301h1.434v-4.332c0.032 0.496 0.441 0.873 0.959 0.873 0.003 0 0.007 0 0.011 0 0.524 0 0.948-0.424 0.948-0.948 0-0.004-0-0.008-0-0.011v0.001c0-0.004 0-0.008 0-0.012 0-0.523-0.424-0.947-0.947-0.947-0.004 0-0.008 0-0.012 0h0.001c-0.517 0-0.927 0.388-0.959 0.895v-0.819zM10.713 27.911c0 0.83 0.689 1.595 1.821 1.595 0.787 0 1.294-0.367 1.563-0.787 0 0.205 0.022 0.495 0.054 0.636h1.315c-0.039-0.251-0.063-0.542-0.064-0.838v-2.61c0-1.067-0.625-2.015-2.306-2.015-1.423 0-2.188 0.916-2.274 1.745l1.272 0.27c0.043-0.463 0.388-0.862 1.013-0.862 0.603 0 0.894 0.312 0.894 0.689 0 0.183-0.097 0.335-0.399 0.377l-1.304 0.194c-0.883 0.129-1.584 0.657-1.584 1.606zM12.836 28.439c-0.463 0-0.69-0.302-0.69-0.615 0-0.409 0.291-0.614 0.657-0.668l1.196-0.183v0.238c0 0.937-0.56 1.228-1.164 1.228zM18.257 26.305c0-0.614 0.367-1.099 0.991-1.099 0.69 0 0.981 0.463 0.981 1.056v3.093h1.433v-3.341c0-1.164-0.604-2.102-1.918-2.102-0.571 0-1.207 0.248-1.53 0.798v-0.657h-1.391v5.302h1.433v-3.050zM24.94 22.469h-1.293v0.743c0 0.474-0.258 0.841-0.819 0.841h-0.27v1.272h0.959v2.468c0 1.023 0.647 1.638 1.681 1.638 0.42 0 0.679-0.076 0.808-0.129v-1.185c-0.076 0.022-0.27 0.044-0.442 0.044-0.409 0-0.625-0.151-0.625-0.615v-2.22h1.067v-1.272h-1.067v-1.584zM26.803 27.879c0.064 0.603 0.614 1.638 2.209 1.638 1.39 0 2.058-0.884 2.058-1.745 0-0.776-0.528-1.412-1.573-1.628l-0.754-0.161c-0.291-0.054-0.485-0.216-0.485-0.474 0-0.302 0.302-0.529 0.679-0.529 0.604 0 0.83 0.399 0.873 0.711l1.197-0.269c-0.065-0.571-0.571-1.53-2.080-1.53-1.142 0-1.983 0.786-1.983 1.735 0 0.744 0.463 1.358 1.488 1.584l0.7 0.162c0.41 0.086 0.571 0.28 0.571 0.517 0 0.28-0.226 0.528-0.7 0.528-0.625 0-0.938-0.388-0.97-0.808l-1.229 0.269z"></path>
<path fill="#55555e" style="fill: var(--color4, #55555e)" d="M41.804 16.599c0.099 0 0.179 0.080 0.179 0.179v0 0.012c0 0.099-0.080 0.179-0.179 0.179s-0.179-0.080-0.179-0.179v0-0.012c0-0.099 0.080-0.179 0.179-0.179v0zM41.804 18.547c0.099 0 0.179 0.080 0.179 0.179v0 0.024c0 0.099-0.080 0.179-0.179 0.179s-0.179-0.080-0.179-0.179v0-0.024c0-0.099 0.080-0.179 0.179-0.179v0zM41.804 20.507c0.099 0 0.179 0.080 0.179 0.179v0 0.024c0 0.099-0.080 0.179-0.179 0.179s-0.179-0.080-0.179-0.179v0-0.024c0-0.099 0.080-0.179 0.179-0.179v0zM41.804 22.467c0.099 0 0.179 0.080 0.179 0.179v0 0.024c0 0.099-0.080 0.179-0.179 0.179s-0.179-0.080-0.179-0.179v0-0.024c0-0.099 0.080-0.179 0.179-0.179v0zM41.804 24.427c0.099 0 0.179 0.080 0.179 0.179v0 0.012c0 0.099-0.080 0.179-0.179 0.179s-0.179-0.080-0.179-0.179v0-0.012c0-0.099 0.080-0.179 0.179-0.179v0zM41.804 2.040c0.099 0 0.179 0.080 0.179 0.179v0.011c0 0.099-0.080 0.179-0.179 0.179s-0.179-0.080-0.179-0.179v0-0.012c0-0.099 0.081-0.179 0.179-0.179 0 0 0 0 0 0v0zM41.804 3.865c0 0 0 0 0 0 0.099 0 0.179 0.080 0.179 0.179v0.023c0 0.099-0.080 0.179-0.179 0.179s-0.179-0.080-0.179-0.179v0-0.023c0-0.099 0.080-0.179 0.179-0.179v0zM41.804 5.701c0.099 0 0.179 0.080 0.179 0.179v0 0.023c0 0.099-0.080 0.179-0.179 0.179s-0.179-0.080-0.179-0.179v0-0.023c0-0.099 0.080-0.179 0.179-0.179v0zM41.804 7.538c0.099 0 0.179 0.080 0.179 0.179v0 0.011c0 0.099-0.080 0.179-0.179 0.179s-0.179-0.080-0.179-0.179v0-0.011c0-0.099 0.080-0.179 0.179-0.179v0zM54.094 12.508c0 0 0 0 0 0 0 0.099-0.080 0.179-0.179 0.179h-0.011c-0.099 0-0.179-0.080-0.179-0.179s0.080-0.179 0.179-0.179h0.011c0.099 0 0.179 0.081 0.179 0.179 0 0 0 0 0 0v0zM52.349 12.508c0 0.099-0.080 0.179-0.179 0.179v0h-0.021c-0.099 0-0.179-0.080-0.179-0.179s0.080-0.179 0.179-0.179h0.021c0.099 0 0.179 0.080 0.179 0.179v0zM50.593 12.508c0 0.099-0.080 0.179-0.179 0.179v0h-0.021c-0.099 0-0.179-0.080-0.179-0.179s0.080-0.179 0.179-0.179h0.021c0.099 0 0.179 0.080 0.179 0.179v0zM48.838 12.508c0 0.099-0.080 0.179-0.179 0.179v0h-0.021c-0.099 0-0.179-0.080-0.179-0.179s0.080-0.179 0.179-0.179h0.021c0.099 0 0.179 0.080 0.179 0.179v0zM47.082 12.508c0 0.099-0.080 0.179-0.179 0.179v0h-0.021c-0.099 0-0.179-0.080-0.179-0.179s0.080-0.179 0.179-0.179h0.021c0.099 0 0.179 0.080 0.179 0.179v0zM45.327 12.508c0 0.099-0.080 0.179-0.179 0.179v0h-0.011c-0.099 0-0.179-0.080-0.179-0.179s0.080-0.179 0.179-0.179h0.011c0.099 0 0.179 0.081 0.179 0.179 0 0 0 0 0 0v0zM38.728 12.508c0 0.099-0.080 0.179-0.179 0.179v0h-0.011c-0.099 0-0.179-0.080-0.179-0.179s0.080-0.179 0.179-0.179h0.011c0.099 0 0.179 0.080 0.179 0.179v0zM36.968 12.508c0 0.099-0.080 0.179-0.179 0.179v0h-0.022c-0.099 0-0.179-0.080-0.179-0.179s0.080-0.179 0.179-0.179h0.022c0.099 0 0.179 0.081 0.179 0.179 0 0 0 0 0 0v0zM35.197 12.508c0 0.099-0.080 0.179-0.179 0.179v0h-0.021c-0.099 0-0.179-0.080-0.179-0.179s0.080-0.179 0.179-0.179h0.022c0.099 0 0.179 0.080 0.179 0.179v0z"></path>
<path fill="#fff" style="fill: var(--color1, #fff)" d="M41.793 0.219h0.024c0.095 0.005 0.17 0.083 0.17 0.179s-0.075 0.174-0.17 0.179l-0 0h-0.023c-0.095-0.005-0.17-0.083-0.17-0.179s0.075-0.174 0.17-0.179l0-0zM40.1 0.516c0.001 0.008 0.002 0.018 0.002 0.027 0 0.089-0.065 0.163-0.15 0.177l-0.001 0-0.023 0.003c-0.011 0.002-0.024 0.004-0.037 0.004-0.099 0-0.179-0.080-0.179-0.179 0-0.093 0.070-0.169 0.16-0.178l0.001-0 0.024-0.003c0.008-0.001 0.018-0.002 0.027-0.002 0.089 0 0.163 0.065 0.177 0.15l0 0.001zM43.51 0.516c0.014-0.086 0.088-0.151 0.177-0.151 0.010 0 0.019 0.001 0.028 0.002l-0.001-0 0.024 0.003c0.082 0.018 0.143 0.090 0.143 0.176 0 0.099-0.080 0.179-0.179 0.179-0.007 0-0.014-0-0.020-0.001l0.001 0-0.023-0.003c-0.086-0.014-0.151-0.088-0.151-0.177 0-0.010 0.001-0.019 0.002-0.028l-0 0.001zM45.364 0.928c0.024-0.072 0.091-0.124 0.17-0.124 0.020 0 0.039 0.003 0.056 0.009l-0.001-0 0.023 0.007c0.076 0.022 0.131 0.091 0.131 0.173 0 0.099-0.080 0.179-0.179 0.179-0.023 0-0.044-0.004-0.064-0.012l-0.021-0.007c-0.073-0.024-0.124-0.091-0.124-0.171 0-0.020 0.003-0.038 0.009-0.056l-0 0.001zM38.246 0.928c0.006 0.016 0.009 0.036 0.009 0.055 0 0.079-0.051 0.147-0.123 0.17l-0.001 0-0.022 0.007c-0.015 0.005-0.033 0.007-0.051 0.007-0.099 0-0.179-0.080-0.179-0.179 0-0.077 0.049-0.143 0.117-0.168l0.001-0 0.023-0.007c0.016-0.005 0.035-0.009 0.055-0.009 0.079 0 0.147 0.051 0.17 0.123l0 0.001zM47.13 1.628c0.030-0.058 0.090-0.098 0.16-0.098 0.030 0 0.058 0.007 0.082 0.020l-0.001-0 0.021 0.011c0.063 0.029 0.107 0.091 0.107 0.164 0 0.099-0.080 0.179-0.179 0.179-0.033 0-0.065-0.009-0.091-0.025l0.001 0-0.021-0.011c-0.058-0.030-0.098-0.090-0.098-0.16 0-0.030 0.007-0.058 0.020-0.082l-0 0.001zM36.48 1.628c0.012 0.024 0.020 0.052 0.020 0.081 0 0.069-0.039 0.129-0.097 0.159l-0.001 0-0.021 0.011c-0.021 0.010-0.046 0.015-0.072 0.015-0.099 0-0.179-0.080-0.179-0.179 0-0.066 0.035-0.123 0.088-0.154l0.001-0 0.021-0.011c0.024-0.012 0.052-0.020 0.081-0.020 0.069 0 0.129 0.039 0.159 0.097l0 0.001zM34.847 2.596c0.021 0.029 0.034 0.066 0.034 0.105 0 0.059-0.029 0.112-0.073 0.144l-0.001 0-0.019 0.014c-0.031 0.026-0.071 0.041-0.114 0.041-0.099 0-0.179-0.080-0.179-0.179 0-0.063 0.033-0.119 0.082-0.151l0.001-0 0.019-0.014c0.029-0.021 0.066-0.034 0.105-0.034 0.059 0 0.112 0.029 0.145 0.073l0 0.001zM48.764 2.596c0.033-0.045 0.086-0.074 0.145-0.074 0.039 0 0.076 0.013 0.106 0.034l-0.001-0 0.019 0.015c0.039 0.033 0.063 0.082 0.063 0.136 0 0.099-0.080 0.179-0.179 0.179-0.035 0-0.068-0.010-0.095-0.027l0.001 0-0.019-0.014c-0.045-0.033-0.074-0.086-0.074-0.145 0-0.040 0.013-0.076 0.035-0.106l-0 0.001zM33.384 3.807c0.032 0.032 0.052 0.077 0.052 0.127s-0.020 0.094-0.052 0.127v0l-0.017 0.016c-0.032 0.029-0.074 0.046-0.12 0.046-0.099 0-0.179-0.080-0.179-0.179 0-0.046 0.017-0.088 0.046-0.12l-0 0 0.017-0.017c0.032-0.032 0.077-0.052 0.127-0.052s0.094 0.020 0.127 0.052v0zM50.226 3.807c0.032-0.032 0.077-0.052 0.127-0.052s0.094 0.020 0.127 0.052v0l0.017 0.017c0.032 0.032 0.052 0.077 0.052 0.127 0 0.099-0.080 0.179-0.179 0.179-0.050 0-0.094-0.020-0.127-0.053v0l-0.017-0.016c-0.033-0.032-0.053-0.077-0.053-0.127s0.020-0.094 0.052-0.127v0zM51.483 5.231c0.029-0.021 0.066-0.034 0.105-0.034 0.059 0 0.112 0.029 0.144 0.073l0 0 0.014 0.019c0.018 0.027 0.029 0.061 0.029 0.097 0 0.099-0.080 0.179-0.179 0.179-0.056 0-0.106-0.026-0.139-0.066l-0-0-0.014-0.019c-0.021-0.029-0.034-0.066-0.034-0.105 0-0.059 0.029-0.112 0.073-0.144l0.001-0zM52.502 6.833c0.024-0.012 0.052-0.020 0.082-0.020 0.069 0 0.129 0.039 0.159 0.096l0 0.001 0.011 0.022c0.012 0.024 0.019 0.052 0.019 0.081 0 0.099-0.080 0.179-0.179 0.179-0.069 0-0.129-0.039-0.159-0.097l-0-0.001-0.011-0.021c-0.012-0.024-0.020-0.052-0.020-0.081 0-0.069 0.039-0.129 0.097-0.159l0.001-0zM53.257 8.576c0.017-0.006 0.036-0.009 0.055-0.009 0.079 0 0.146 0.051 0.17 0.122l0 0.001 0.007 0.023c0.005 0.016 0.009 0.035 0.009 0.055 0 0.099-0.080 0.179-0.179 0.179-0.079 0-0.146-0.051-0.17-0.123l-0-0.001-0.007-0.022c-0.006-0.017-0.009-0.036-0.009-0.056 0-0.079 0.051-0.146 0.123-0.17l0.001-0zM53.728 10.416c0.008-0.001 0.018-0.002 0.028-0.002 0.089 0 0.163 0.065 0.177 0.15l0 0.001 0.004 0.024c0.001 0.005 0.001 0.011 0.001 0.018 0 0.099-0.080 0.179-0.179 0.179-0.086 0-0.157-0.060-0.175-0.141l-0-0.001-0.004-0.023c-0.001-0.008-0.002-0.018-0.002-0.028 0-0.089 0.065-0.163 0.15-0.177l0.001-0zM53.905 12.307c0.099 0 0.179 0.080 0.179 0.179v0 0.024c-0.005 0.095-0.083 0.17-0.179 0.17s-0.174-0.075-0.179-0.17l-0-0v-0.024c0 0 0 0 0 0 0-0.099 0.080-0.179 0.179-0.179h0zM53.788 14.203c0.086 0.014 0.151 0.088 0.151 0.177 0 0.010-0.001 0.020-0.002 0.029l0-0.001-0.004 0.023c-0.018 0.082-0.090 0.142-0.176 0.142-0.099 0-0.179-0.080-0.179-0.179 0-0.007 0-0.013 0.001-0.019l-0 0.001 0.004-0.023c0.014-0.086 0.088-0.151 0.177-0.151 0.010 0 0.019 0.001 0.028 0.002l-0.001-0zM53.375 16.057c0.094 0.030 0.145 0.131 0.115 0.225l-0.007 0.023c-0.024 0.072-0.091 0.123-0.17 0.123-0.099 0-0.179-0.080-0.179-0.179 0-0.020 0.003-0.039 0.009-0.057l-0 0.001 0.007-0.022c0.024-0.072 0.091-0.124 0.171-0.124 0.020 0 0.039 0.003 0.057 0.009l-0.001-0zM52.675 17.823c0.058 0.030 0.098 0.090 0.098 0.159 0 0.030-0.007 0.058-0.020 0.083l0-0.001-0.011 0.021c-0.029 0.062-0.091 0.105-0.163 0.105-0.099 0-0.179-0.080-0.179-0.179 0-0.033 0.009-0.063 0.024-0.090l-0 0.001 0.011-0.020c0.030-0.059 0.090-0.098 0.16-0.098 0.030 0 0.058 0.007 0.082 0.020l-0.001-0zM51.707 19.456c0.045 0.033 0.074 0.086 0.074 0.145 0 0.040-0.013 0.076-0.034 0.106l0-0-0.014 0.019c-0.033 0.049-0.087 0.080-0.149 0.080-0.099 0-0.179-0.080-0.179-0.179 0-0.043 0.015-0.082 0.040-0.113l-0 0 0.014-0.018c0.033-0.045 0.086-0.074 0.145-0.074 0.039 0 0.076 0.013 0.106 0.034l-0.001-0zM33.114 20.919c0.032-0.032 0.077-0.052 0.127-0.052s0.094 0.020 0.127 0.052v0l0.017 0.017c0.029 0.032 0.046 0.074 0.046 0.12 0 0.099-0.080 0.179-0.179 0.179-0.046 0-0.088-0.017-0.12-0.046l-0.017-0.017c-0.032-0.032-0.052-0.077-0.052-0.127s0.020-0.094 0.052-0.127v0zM50.496 20.919c0.033 0.032 0.053 0.077 0.053 0.127s-0.020 0.094-0.052 0.126v0l-0.017 0.017c-0.032 0.028-0.074 0.046-0.12 0.046-0.099 0-0.179-0.080-0.179-0.179 0-0.046 0.017-0.088 0.046-0.12l0.016-0.016c0.032-0.032 0.077-0.052 0.127-0.052s0.094 0.020 0.127 0.052v0zM34.538 22.175c0.033-0.045 0.085-0.073 0.145-0.073 0.040 0 0.076 0.013 0.106 0.035l-0.001-0 0.019 0.014c0.051 0.032 0.085 0.088 0.085 0.152 0 0.099-0.080 0.179-0.179 0.179-0.044 0-0.085-0.016-0.116-0.042l0 0-0.019-0.014c-0.045-0.033-0.074-0.086-0.074-0.145 0-0.040 0.013-0.076 0.035-0.106l-0 0zM49.072 22.175c0.021 0.029 0.034 0.066 0.034 0.105 0 0.059-0.029 0.112-0.073 0.144l-0.001 0-0.019 0.015c-0.029 0.021-0.066 0.034-0.105 0.034-0.099 0-0.179-0.080-0.179-0.179 0-0.059 0.029-0.112 0.074-0.145l0.001-0 0.019-0.013c0.029-0.021 0.066-0.034 0.106-0.034 0.059 0 0.112 0.029 0.144 0.073l0 0zM36.141 23.195c0.030-0.058 0.090-0.097 0.159-0.097 0.030 0 0.058 0.007 0.083 0.020l-0.001-0 0.021 0.010c0.056 0.031 0.093 0.090 0.093 0.157 0 0.099-0.080 0.179-0.179 0.179-0.028 0-0.054-0.006-0.078-0.018l0.001 0-0.021-0.011c-0.058-0.030-0.098-0.090-0.098-0.16 0-0.030 0.007-0.058 0.020-0.082l-0 0.001zM47.47 23.195c0.012 0.024 0.020 0.052 0.020 0.082 0 0.069-0.039 0.129-0.096 0.159l-0.001 0-0.021 0.011c-0.025 0.014-0.054 0.022-0.086 0.022-0.099 0-0.179-0.080-0.179-0.179 0-0.071 0.041-0.133 0.101-0.162l0.001-0 0.021-0.010c0.024-0.012 0.052-0.020 0.082-0.020 0.069 0 0.129 0.039 0.159 0.096l0 0.001zM37.883 23.951c0.024-0.072 0.091-0.124 0.171-0.124 0.020 0 0.039 0.003 0.057 0.009l-0.001-0 0.022 0.007c0.068 0.027 0.114 0.091 0.114 0.167 0 0.099-0.080 0.179-0.179 0.179-0.016 0-0.032-0.002-0.046-0.006l0.001 0-0.023-0.008c-0.072-0.024-0.124-0.091-0.124-0.17 0-0.020 0.003-0.039 0.009-0.056l-0 0.001zM45.727 23.951c0.005 0.016 0.009 0.035 0.009 0.055 0 0.079-0.051 0.146-0.122 0.17l-0.001 0-0.023 0.008c-0.019 0.008-0.042 0.012-0.065 0.012-0.099 0-0.179-0.080-0.179-0.179 0-0.083 0.056-0.153 0.133-0.173l0.001-0 0.022-0.007c0.017-0.006 0.036-0.009 0.055-0.009 0.079 0 0.146 0.051 0.17 0.122l0 0.001zM39.723 24.422c0.014-0.086 0.088-0.151 0.177-0.151 0.010 0 0.019 0.001 0.029 0.002l-0.001-0 0.023 0.003c0.091 0.009 0.162 0.086 0.162 0.178 0 0.099-0.080 0.179-0.179 0.179-0.013 0-0.026-0.001-0.039-0.004l0.001 0-0.024-0.004c-0.086-0.014-0.151-0.088-0.151-0.177 0-0.010 0.001-0.019 0.002-0.029l-0 0.001zM43.887 24.422c0.001 0.008 0.002 0.018 0.002 0.027 0 0.089-0.065 0.163-0.15 0.177l-0.001 0-0.024 0.004c-0.011 0.003-0.024 0.004-0.038 0.004-0.099 0-0.179-0.080-0.179-0.179 0-0.093 0.071-0.169 0.161-0.178l0.001-0 0.023-0.004c0.008-0.001 0.018-0.002 0.027-0.002 0.089 0 0.163 0.065 0.177 0.15l0 0.001zM41.614 24.599c0-0.099 0.080-0.179 0.179-0.179v0h0.023c0.099 0 0.179 0.080 0.179 0.179s-0.080 0.179-0.179 0.179v0h-0.024c-0.099-0-0.179-0.081-0.179-0.179 0 0 0 0 0 0v0z"></path>
<path fill="#6966ff" style="fill: var(--color3, #6966ff)" d="M42.203 24.598c0 0.22-0.178 0.398-0.398 0.398s-0.398-0.178-0.398-0.398v0c0-0.22 0.178-0.398 0.398-0.398s0.398 0.178 0.398 0.398v0zM53.904 12.896c-0.22 0-0.398-0.178-0.398-0.398s0.178-0.398 0.398-0.398v0c0.22 0 0.398 0.178 0.398 0.398s-0.178 0.398-0.398 0.398v0zM42.203 0.398c0 0.22-0.178 0.398-0.398 0.398s-0.398-0.178-0.398-0.398v0c0-0.22 0.178-0.398 0.398-0.398s0.398 0.178 0.398 0.398v0z"></path>
<path fill="#fff" style="fill: var(--color1, #fff)" d="M45.282 5.037h3.301l-10.628 14.885h-3.247l10.573-14.885zM41.405 9.423l-3.111-4.386h-3.314l4.801 6.778 1.623-2.392zM40.591 9.432l-0.821 1.21-3.497-4.936h1.675l2.642 3.726zM36.004 19.253h1.607l9.673-13.548h-1.657l-9.623 13.548z"></path>
<path fill="#6966ff" style="fill: var(--color5, #6966ff)" d="M45.972 19.241l-2.91-4.040c-0.030-0.041-0.030-0.097-0.001-0.138l0.688-0.983c0.022-0.031 0.057-0.050 0.097-0.050s0.076 0.020 0.098 0.051l3.669 5.21h-1.544c-0.039 0-0.074-0.018-0.097-0.049zM42.193 15.138l3.473 4.821h3.236l-5.057-7.181-1.652 2.36z"></path>
<path fill="#fff" style="fill: var(--color1, #fff)" d="M11.35 5.037h-2.837v4.429c-0.796-0.433-1.743-0.688-2.749-0.688-0.004 0-0.008 0-0.012 0h0.001c-3.176 0-5.751 2.513-5.751 5.613s2.575 5.612 5.751 5.612c0.004 0 0.008 0 0.012 0 1.006 0 1.953-0.255 2.779-0.703l-0.031 0.015v0.554h2.837v-14.832zM8.979 14.361c0 1.756-1.458 3.179-3.258 3.179s-3.257-1.423-3.257-3.179c0-1.755 1.458-3.179 3.257-3.179s3.258 1.423 3.258 3.179zM22.846 5.037l-10.55 14.832h3.308l10.541-14.832h-3.298zM31.076 5.037h2.837v14.832h-2.837v-0.554c-0.796 0.433-1.742 0.688-2.748 0.688-0.004 0-0.008 0-0.012 0h0.001c-3.177 0-5.751-2.512-5.751-5.612s2.575-5.613 5.751-5.613c1 0 1.941 0.25 2.76 0.688v-4.429zM28.285 17.54c1.799 0 3.257-1.423 3.257-3.179s-1.458-3.179-3.257-3.179-3.257 1.423-3.257 3.179c0 1.755 1.458 3.179 3.257 3.179zM18.916 9.54l-3.31-4.503h-3.445l4.931 7.019 1.824-2.516z"></path>
</symbol>
<symbol id="icon-master-avatar" viewBox="0 0 32 32">
<path fill="#fff" style="fill: var(--color1, #fff)" d="M20.393 6.428h4.213l-13.563 18.995h-4.143l13.493-18.995zM15.445 12.026l-3.97-5.597h-4.229l6.128 8.651 2.071-3.053zM14.406 12.036l-1.047 1.545-4.462-6.299h2.138l3.372 4.755zM8.554 24.57h2.050l12.345-17.289h-2.115l-12.28 17.289z"></path>
<path fill="#6966ff" style="fill: var(--color5, #6966ff)" d="M21.319 24.617l-3.822-5.306 1.063-1.52 4.807 6.826h-2.049zM16.451 19.318l4.431 6.153h4.13l-6.453-9.164-2.108 3.011z"></path>
<path fill="#55555e" style="fill: var(--color4, #55555e)" d="M16.185 2.832c-0.006-0.122-0.106-0.218-0.229-0.218s-0.222 0.096-0.229 0.217l-0 0.001v0.014c0.006 0.122 0.106 0.218 0.229 0.218s0.222-0.096 0.229-0.217l0-0.001v-0.014zM16.185 5.161c-0.006-0.122-0.106-0.218-0.229-0.218s-0.222 0.096-0.229 0.217l-0 0.001v0.029c0.006 0.122 0.106 0.218 0.229 0.218s0.222-0.096 0.229-0.217l0-0.001v-0.029zM16.185 7.505c-0.006-0.122-0.106-0.218-0.229-0.218s-0.222 0.096-0.229 0.217l-0 0.001v0.029c0.006 0.122 0.106 0.218 0.229 0.218s0.222-0.096 0.229-0.217l0-0.001v-0.029zM16.185 9.849c-0.006-0.122-0.106-0.218-0.229-0.218s-0.222 0.096-0.229 0.217l-0 0.001v0.014c0.006 0.122 0.106 0.218 0.229 0.218s0.222-0.096 0.229-0.217l0-0.001v-0.014zM16.185 21.411c-0.006-0.122-0.106-0.218-0.229-0.218s-0.222 0.096-0.229 0.217l-0 0.001v0.016c0.006 0.122 0.106 0.218 0.229 0.218s0.222-0.096 0.229-0.217l0-0.001v-0.016zM16.185 23.897c-0.006-0.122-0.106-0.218-0.229-0.218s-0.222 0.096-0.229 0.217l-0 0.001v0.031c0.006 0.122 0.106 0.218 0.229 0.218s0.222-0.096 0.229-0.217l0-0.001v-0.031zM16.185 26.398c-0.006-0.122-0.106-0.218-0.229-0.218s-0.222 0.096-0.229 0.217l-0 0.001v0.031c0.006 0.122 0.106 0.218 0.229 0.218s0.222-0.096 0.229-0.217l0-0.001v-0.031zM16.185 28.899c-0.006-0.122-0.106-0.218-0.229-0.218s-0.222 0.096-0.229 0.217l-0 0.001v0.031c0.006 0.122 0.106 0.218 0.229 0.218s0.222-0.096 0.229-0.217l0-0.001v-0.031zM16.185 31.401c-0.006-0.122-0.106-0.218-0.229-0.218s-0.222 0.096-0.229 0.217l-0 0.001v0.015c0.006 0.122 0.106 0.218 0.229 0.218s0.222-0.096 0.229-0.217l0-0.001v-0.015zM31.639 15.962c0 0 0 0 0 0 0 0.126-0.102 0.228-0.228 0.229h-0.014c-0.122-0.006-0.218-0.106-0.218-0.229s0.096-0.222 0.217-0.229l0.001-0h0.014c0.126 0 0.228 0.102 0.228 0.228zM29.412 15.962c0 0 0 0 0 0 0 0.126-0.102 0.228-0.228 0.229h-0.028c-0.122-0.006-0.218-0.106-0.218-0.229s0.096-0.222 0.217-0.229l0.001-0h0.028c0.126 0 0.228 0.102 0.228 0.228zM27.172 15.962c0 0.126-0.102 0.229-0.229 0.229v0h-0.028c-0.122-0.006-0.218-0.106-0.218-0.229s0.096-0.222 0.217-0.229l0.001-0h0.028c0.126 0 0.229 0.102 0.229 0.228zM24.932 15.962c0 0.126-0.102 0.229-0.229 0.229v0h-0.027c-0.122-0.006-0.218-0.106-0.218-0.229s0.096-0.222 0.217-0.229l0.001-0h0.027c0.126 0 0.229 0.102 0.229 0.228zM22.692 15.962c0 0 0 0 0 0 0 0.126-0.102 0.229-0.229 0.229-0 0-0 0-0.001 0h-0.027c-0.122-0.006-0.218-0.106-0.218-0.229s0.096-0.222 0.217-0.229l0.001-0h0.028c0.126 0 0.228 0.102 0.228 0.228zM20.451 15.962c0 0.126-0.102 0.229-0.229 0.229v0h-0.014c-0.122-0.006-0.218-0.106-0.218-0.229s0.096-0.222 0.217-0.229l0.001-0h0.014c0.126 0 0.229 0.102 0.229 0.228zM11.802 16.19c0.122-0.006 0.218-0.106 0.218-0.229s-0.096-0.222-0.217-0.229l-0.001-0h-0.014c-0.003-0-0.007-0-0.011-0-0.126 0-0.229 0.102-0.229 0.229s0.102 0.229 0.229 0.229c0.004 0 0.008-0 0.012-0l-0.001 0h0.014zM9.556 16.19c0.122-0.006 0.218-0.106 0.218-0.229s-0.096-0.222-0.217-0.229l-0.001-0h-0.028c-0.126 0-0.229 0.102-0.229 0.229s0.102 0.229 0.229 0.229h0.028zM7.297 16.19c0.122-0.006 0.218-0.106 0.218-0.229s-0.096-0.222-0.217-0.229l-0.001-0h-0.028c-0.126 0-0.229 0.102-0.229 0.229s0.102 0.229 0.229 0.229h0.028zM5.036 16.19c0.122-0.006 0.218-0.106 0.218-0.229s-0.096-0.222-0.217-0.229l-0.001-0h-0.028c-0.003-0-0.007-0-0.011-0-0.126 0-0.229 0.102-0.229 0.229s0.102 0.229 0.229 0.229c0.004 0 0.008-0 0.012-0l-0.001 0h0.028zM2.777 16.19c0.122-0.006 0.218-0.106 0.218-0.229s-0.096-0.222-0.217-0.229l-0.001-0h-0.028c-0.003-0-0.007-0-0.011-0-0.126 0-0.229 0.102-0.229 0.229s0.102 0.229 0.229 0.229c0.004 0 0.008-0 0.012-0l-0.001 0h0.028zM0.516 16.19c0.122-0.006 0.218-0.106 0.218-0.229s-0.096-0.222-0.217-0.229l-0.001-0h-0.014c-0.003-0-0.007-0-0.011-0-0.126 0-0.229 0.102-0.229 0.229s0.102 0.229 0.229 0.229c0.004 0 0.008-0 0.012-0l-0.001 0h0.014z"></path>
<path fill="#fff" style="fill: var(--color1, #fff)" d="M15.941 0.279h0.030c0.121 0.006 0.218 0.106 0.218 0.229s-0.096 0.223-0.217 0.229l-0.001 0h-0.030c-0.122-0.006-0.218-0.106-0.218-0.229s0.096-0.222 0.217-0.229l0.001-0zM13.781 0.658c0.002 0.011 0.003 0.023 0.003 0.035 0 0.114-0.083 0.208-0.192 0.226l-0.001 0-0.029 0.004c-0.011 0.002-0.023 0.003-0.035 0.003-0.126 0-0.228-0.102-0.228-0.228 0-0.114 0.083-0.208 0.192-0.225l0.001-0 0.030-0.005c0.011-0.002 0.023-0.003 0.035-0.003 0.114 0 0.208 0.083 0.226 0.192l0 0.001zM18.132 0.658c0.018-0.11 0.112-0.193 0.226-0.193 0.012 0 0.025 0.001 0.037 0.003l-0.001-0 0.030 0.005c0.11 0.018 0.193 0.112 0.193 0.226 0 0.126-0.102 0.228-0.228 0.228-0.013 0-0.025-0.001-0.037-0.003l0.001 0-0.029-0.004c-0.11-0.018-0.194-0.112-0.194-0.226 0-0.012 0.001-0.025 0.003-0.037l-0 0.001zM20.498 1.185c0.031-0.092 0.117-0.158 0.218-0.158 0.025 0 0.049 0.004 0.072 0.012l-0.002-0 0.029 0.009c0.088 0.033 0.149 0.117 0.149 0.214 0 0.126-0.102 0.229-0.229 0.229-0.022 0-0.044-0.003-0.064-0.009l0.002 0-0.028-0.009c-0.093-0.031-0.158-0.117-0.158-0.218 0-0.025 0.004-0.049 0.012-0.072l-0 0.002zM11.415 1.185c0.007 0.021 0.011 0.045 0.011 0.070 0 0.101-0.066 0.187-0.157 0.217l-0.002 0-0.028 0.009c-0.018 0.005-0.039 0.008-0.060 0.008-0.126 0-0.229-0.102-0.229-0.229 0-0.097 0.061-0.18 0.146-0.213l0.002-0.001 0.029-0.009c0.021-0.007 0.045-0.011 0.070-0.011 0.101 0 0.187 0.065 0.217 0.156l0 0.002zM22.751 2.077c0.039-0.075 0.115-0.125 0.204-0.125 0.038 0 0.073 0.009 0.105 0.025l-0.001-0.001 0.027 0.014c0.075 0.039 0.125 0.115 0.125 0.203 0 0.126-0.102 0.228-0.229 0.228-0.038 0-0.074-0.009-0.105-0.026l0.001 0.001-0.027-0.013c-0.075-0.039-0.125-0.115-0.125-0.204 0-0.038 0.009-0.074 0.026-0.105l-0.001 0.001zM9.162 2.077c0.016 0.030 0.025 0.066 0.025 0.104 0 0.088-0.050 0.165-0.123 0.203l-0.001 0.001-0.027 0.013c-0.030 0.016-0.066 0.025-0.104 0.025-0.126 0-0.229-0.102-0.229-0.228 0-0.088 0.050-0.165 0.123-0.203l0.001-0.001 0.027-0.014c0.030-0.016 0.066-0.025 0.104-0.025 0.088 0 0.165 0.050 0.203 0.123l0.001 0.001zM7.076 3.313c0.075 0.102 0.052 0.245-0.050 0.32l-0.024 0.017c-0.038 0.030-0.088 0.049-0.141 0.049-0.126 0-0.229-0.102-0.229-0.229 0-0.079 0.040-0.148 0.1-0.189l0.001-0.001 0.025-0.018c0.037-0.027 0.084-0.044 0.135-0.044 0.076 0 0.143 0.037 0.184 0.093l0 0.001zM24.836 3.313c0.042-0.057 0.109-0.094 0.185-0.094 0.050 0 0.097 0.016 0.135 0.044l-0.001-0 0.025 0.018c0.054 0.042 0.088 0.107 0.088 0.18 0 0.126-0.102 0.229-0.229 0.229-0.048 0-0.092-0.015-0.129-0.040l0.001 0.001-0.024-0.018c-0.057-0.042-0.094-0.109-0.094-0.185 0-0.050 0.016-0.097 0.044-0.135l-0 0.001zM5.209 4.859c0.041 0.041 0.067 0.098 0.067 0.162s-0.026 0.12-0.067 0.162v0l-0.021 0.021c-0.042 0.044-0.101 0.071-0.166 0.071-0.126 0-0.229-0.102-0.229-0.229 0-0.065 0.027-0.124 0.071-0.166l0.021-0.021c0.041-0.041 0.099-0.067 0.162-0.067s0.12 0.026 0.162 0.067v0zM26.702 4.859c0.041-0.041 0.099-0.067 0.162-0.067s0.12 0.025 0.161 0.066l0.021 0.021c0.046 0.042 0.075 0.102 0.075 0.169 0 0.126-0.102 0.229-0.229 0.229-0.067 0-0.127-0.029-0.169-0.075l-0-0-0.021-0.021c-0.041-0.041-0.067-0.098-0.067-0.161s0.025-0.12 0.067-0.161v0zM3.606 6.676c0.102 0.075 0.125 0.218 0.050 0.319l-0.017 0.023c-0.042 0.053-0.107 0.086-0.179 0.086-0.126 0-0.229-0.102-0.229-0.229 0-0.047 0.014-0.090 0.038-0.127l-0.001 0.001 0.018-0.025c0.042-0.057 0.109-0.094 0.185-0.094 0.050 0 0.097 0.016 0.135 0.044l-0.001-0zM28.306 6.676c0.037-0.027 0.084-0.044 0.135-0.044 0.076 0 0.143 0.037 0.184 0.093l0 0.001 0.018 0.025c0.033 0.039 0.052 0.090 0.052 0.146 0 0.126-0.102 0.229-0.229 0.229-0.081 0-0.152-0.042-0.193-0.105l-0.001-0.001-0.018-0.023c-0.028-0.037-0.044-0.084-0.044-0.135 0-0.076 0.037-0.143 0.094-0.185l0.001-0zM29.606 8.721c0.030-0.016 0.066-0.025 0.104-0.025 0.088 0 0.165 0.050 0.203 0.123l0.001 0.001 0.014 0.027c0.014 0.029 0.023 0.063 0.023 0.099 0 0.126-0.102 0.229-0.229 0.229-0.087 0-0.162-0.048-0.201-0.119l-0.001-0.001-0.013-0.027c-0.016-0.030-0.025-0.066-0.025-0.104 0-0.088 0.050-0.165 0.123-0.203l0.001-0.001zM2.306 8.721c0.112 0.058 0.157 0.195 0.099 0.308l-0.013 0.027c-0.039 0.072-0.115 0.12-0.201 0.12-0.126 0-0.229-0.102-0.229-0.229 0-0.036 0.008-0.070 0.023-0.101l-0.001 0.001 0.014-0.027c0.039-0.075 0.115-0.125 0.204-0.125 0.038 0 0.074 0.009 0.105 0.026l-0.001-0.001zM1.342 10.945c0.092 0.031 0.158 0.117 0.158 0.217 0 0.025-0.004 0.049-0.012 0.072l0-0.002-0.009 0.028c-0.029 0.096-0.116 0.165-0.22 0.165-0.126 0-0.229-0.102-0.229-0.229 0-0.027 0.005-0.054 0.014-0.078l-0 0.002 0.010-0.029c0.031-0.092 0.117-0.158 0.218-0.158 0.025 0 0.049 0.004 0.072 0.012l-0.002-0zM30.57 10.945c0.021-0.007 0.045-0.011 0.071-0.011 0.101 0 0.186 0.065 0.217 0.156l0 0.002 0.010 0.029c0.008 0.023 0.013 0.049 0.013 0.077 0 0.126-0.102 0.229-0.229 0.229-0.104 0-0.191-0.069-0.219-0.163l-0-0.002-0.009-0.028c-0.007-0.021-0.011-0.045-0.011-0.070 0-0.101 0.065-0.187 0.156-0.217l0.002-0zM0.741 13.292c0.11 0.018 0.193 0.112 0.193 0.226 0 0.012-0.001 0.025-0.003 0.037l0-0.001-0.005 0.029c-0.018 0.11-0.112 0.193-0.226 0.193-0.126 0-0.229-0.102-0.229-0.229 0-0.012 0.001-0.025 0.003-0.037l-0 0.001 0.005-0.030c0.018-0.11 0.112-0.193 0.226-0.193 0.012 0 0.025 0.001 0.037 0.003l-0.001-0zM31.172 13.292c0.011-0.002 0.023-0.003 0.035-0.003 0.114 0 0.208 0.083 0.226 0.191l0 0.001 0.005 0.030c0.001 0.008 0.001 0.017 0.001 0.026 0 0.126-0.102 0.229-0.229 0.229-0.11 0-0.203-0.078-0.224-0.182l-0-0.001-0.005-0.029c-0.002-0.011-0.003-0.023-0.003-0.035 0-0.114 0.083-0.208 0.192-0.226l0.001-0zM0.516 15.706c0.126 0 0.228 0.102 0.228 0.229v0.029c-0.006 0.122-0.106 0.218-0.229 0.218s-0.222-0.096-0.229-0.217l-0-0.001v-0.030c0-0.126 0.102-0.228 0.229-0.228zM31.397 15.706c0.126 0 0.229 0.102 0.229 0.228v0.030c0 0.126-0.102 0.229-0.229 0.229s-0.229-0.102-0.229-0.229v-0.030c0-0.126 0.102-0.229 0.228-0.229zM0.666 18.125c0.011-0.002 0.023-0.003 0.035-0.003 0.114 0 0.208 0.083 0.226 0.192l0 0.001 0.004 0.029c0.001 0.009 0.002 0.018 0.002 0.028 0 0.126-0.102 0.229-0.229 0.229-0.111 0-0.204-0.079-0.224-0.184l-0-0.001-0.005-0.030c-0.002-0.011-0.003-0.023-0.003-0.035 0-0.114 0.083-0.208 0.192-0.226l0.001-0zM31.247 18.125c0.11 0.018 0.194 0.112 0.194 0.226 0 0.012-0.001 0.025-0.003 0.037l0-0.001-0.005 0.030c-0.018 0.11-0.112 0.193-0.226 0.193-0.126 0-0.228-0.102-0.228-0.228 0-0.013 0.001-0.025 0.003-0.037l-0 0.001 0.005-0.029c0.018-0.11 0.112-0.193 0.226-0.193 0.012 0 0.025 0.001 0.037 0.003l-0.001-0zM1.193 20.491c0.021-0.007 0.045-0.011 0.070-0.011 0.101 0 0.187 0.066 0.217 0.157l0 0.002 0.009 0.028c0.005 0.018 0.008 0.039 0.008 0.060 0 0.126-0.102 0.229-0.229 0.229-0.097 0-0.18-0.061-0.213-0.146l-0.001-0.002-0.010-0.029c-0.007-0.021-0.011-0.045-0.011-0.070 0-0.101 0.066-0.187 0.157-0.217l0.002-0zM30.721 20.491c0.093 0.031 0.158 0.116 0.158 0.218 0 0.025-0.004 0.049-0.012 0.072l0-0.002-0.010 0.029c-0.028 0.097-0.116 0.167-0.22 0.167-0.126 0-0.229-0.102-0.229-0.229 0-0.029 0.005-0.056 0.015-0.081l-0.001 0.002 0.010-0.028c0.031-0.093 0.116-0.158 0.218-0.158 0.025 0 0.049 0.004 0.072 0.012l-0.002-0zM2.085 22.744c0.030-0.016 0.066-0.025 0.104-0.025 0.088 0 0.165 0.050 0.203 0.123l0.001 0.001 0.013 0.027c0.013 0.028 0.020 0.060 0.020 0.094 0 0.126-0.102 0.229-0.229 0.229-0.084 0-0.158-0.046-0.198-0.113l-0.001-0.001-0.014-0.027c-0.016-0.030-0.025-0.066-0.025-0.104 0-0.089 0.050-0.165 0.124-0.203l0.001-0.001zM29.829 22.744c0.112 0.057 0.157 0.195 0.1 0.307l-0.014 0.027c-0.040 0.069-0.114 0.114-0.198 0.114-0.126 0-0.229-0.102-0.229-0.229 0-0.034 0.007-0.066 0.021-0.095l-0.001 0.001 0.013-0.026c0.039-0.075 0.115-0.125 0.204-0.125 0.038 0 0.074 0.009 0.105 0.026l-0.001-0.001zM3.319 24.829c0.037-0.027 0.084-0.044 0.134-0.044 0.076 0 0.143 0.037 0.185 0.094l0 0.001 0.017 0.023c0.024 0.036 0.039 0.080 0.039 0.127 0 0.126-0.102 0.229-0.229 0.229-0.072 0-0.137-0.033-0.179-0.086l-0-0-0.018-0.025c-0.027-0.037-0.044-0.084-0.044-0.135 0-0.076 0.037-0.143 0.094-0.185l0.001-0zM28.592 24.829c0.102 0.074 0.125 0.217 0.051 0.319l-0.018 0.025c-0.042 0.054-0.107 0.088-0.18 0.088-0.126 0-0.229-0.102-0.229-0.229 0-0.048 0.015-0.092 0.040-0.129l-0 0.001 0.018-0.024c0.042-0.057 0.109-0.094 0.185-0.094 0.050 0 0.097 0.016 0.135 0.044l-0.001-0zM4.865 26.695c0.041-0.041 0.098-0.067 0.162-0.067s0.12 0.026 0.162 0.067v0l0.021 0.021c0.041 0.041 0.067 0.099 0.067 0.162 0 0.126-0.102 0.229-0.229 0.229-0.063 0-0.12-0.026-0.162-0.067l-0.021-0.021c-0.041-0.041-0.067-0.099-0.067-0.162s0.026-0.12 0.067-0.162v0zM27.046 26.695c0.041 0.041 0.067 0.099 0.067 0.162s-0.026 0.12-0.067 0.162v0l-0.021 0.021c-0.042 0.048-0.103 0.077-0.172 0.077-0.126 0-0.229-0.102-0.229-0.229 0-0.068 0.030-0.13 0.077-0.172l0-0 0.021-0.021c0.041-0.041 0.099-0.067 0.162-0.067s0.12 0.026 0.162 0.067v0zM6.683 28.299c0.042-0.057 0.109-0.094 0.185-0.094 0.051 0 0.098 0.017 0.136 0.045l-0.001-0 0.023 0.017c0.060 0.042 0.099 0.111 0.099 0.189 0 0.126-0.102 0.229-0.229 0.229-0.053 0-0.101-0.018-0.14-0.048l0.001 0-0.025-0.018c-0.057-0.042-0.094-0.109-0.094-0.185 0-0.051 0.016-0.097 0.044-0.135l-0 0.001zM25.23 28.299c0.075 0.102 0.052 0.245-0.050 0.32l-0.025 0.018c-0.038 0.029-0.087 0.047-0.139 0.047-0.126 0-0.229-0.102-0.229-0.229 0-0.078 0.039-0.147 0.099-0.188l0.001-0 0.024-0.017c0.037-0.027 0.084-0.044 0.135-0.044 0.076 0 0.142 0.037 0.184 0.093l0 0.001zM8.728 29.6c0.039-0.075 0.115-0.125 0.204-0.125 0.038 0 0.073 0.009 0.105 0.025l-0.001-0.001 0.027 0.014c0.072 0.039 0.12 0.115 0.12 0.201 0 0.126-0.102 0.229-0.229 0.229-0.036 0-0.070-0.008-0.101-0.023l0.001 0.001-0.027-0.014c-0.074-0.039-0.124-0.115-0.124-0.204 0-0.038 0.009-0.074 0.026-0.105l-0.001 0.001zM23.185 29.6c0.016 0.030 0.025 0.066 0.025 0.104 0 0.088-0.050 0.165-0.123 0.203l-0.001 0.001-0.027 0.014c-0.029 0.014-0.063 0.023-0.099 0.023-0.126 0-0.229-0.102-0.229-0.229 0-0.087 0.048-0.162 0.119-0.201l0.001-0.001 0.027-0.014c0.030-0.016 0.066-0.025 0.104-0.025 0.088 0 0.165 0.050 0.203 0.123l0.001 0.001zM10.951 30.564c0.031-0.092 0.117-0.158 0.217-0.158 0.025 0 0.049 0.004 0.072 0.012l-0.002-0 0.028 0.009c0.096 0.029 0.165 0.116 0.165 0.22 0 0.126-0.102 0.229-0.229 0.229-0.027 0-0.054-0.005-0.078-0.014l0.002 0-0.029-0.010c-0.092-0.031-0.158-0.117-0.158-0.218 0-0.025 0.004-0.049 0.012-0.072l-0 0.002zM20.961 30.564c0.007 0.021 0.011 0.045 0.011 0.071 0 0.101-0.065 0.186-0.156 0.217l-0.002 0-0.029 0.010c-0.023 0.008-0.049 0.013-0.077 0.013-0.126 0-0.229-0.102-0.229-0.229 0-0.104 0.069-0.191 0.163-0.219l0.002-0 0.028-0.009c0.021-0.007 0.045-0.011 0.070-0.011 0.101 0 0.187 0.065 0.217 0.156l0 0.002zM13.299 31.165c0.018-0.11 0.112-0.193 0.225-0.193 0.013 0 0.025 0.001 0.037 0.003l-0.001-0 0.029 0.005c0.117 0.011 0.208 0.109 0.208 0.228 0 0.126-0.102 0.229-0.229 0.229-0.018 0-0.035-0.002-0.051-0.006l0.002 0-0.030-0.005c-0.11-0.018-0.193-0.112-0.193-0.226 0-0.012 0.001-0.025 0.003-0.037l-0 0.001zM18.613 31.165c0.002 0.011 0.003 0.023 0.003 0.035 0 0.114-0.083 0.208-0.191 0.226l-0.001 0-0.030 0.005c-0.008 0.001-0.017 0.001-0.026 0.001-0.126 0-0.229-0.102-0.229-0.229 0-0.11 0.078-0.203 0.183-0.224l0.001-0 0.029-0.005c0.011-0.002 0.023-0.003 0.036-0.003 0.114 0 0.208 0.083 0.225 0.192l0 0.001zM15.713 31.391c0-0.126 0.103-0.229 0.229-0.229h0.029c0.126 0 0.229 0.102 0.229 0.229s-0.102 0.229-0.229 0.229h-0.030c-0.126-0-0.228-0.103-0.228-0.229 0-0 0-0 0-0.001v0z"></path>
<path fill="#6966ff" style="fill: var(--color3, #6966ff)" d="M16.465 31.39c0 0.281-0.227 0.508-0.508 0.508s-0.508-0.227-0.508-0.508v0c0-0.281 0.227-0.508 0.508-0.508s0.508 0.227 0.508 0.508v0zM31.397 16.457c-0.281 0-0.508-0.227-0.508-0.508s0.227-0.508 0.508-0.508v0c0.281 0 0.508 0.227 0.508 0.508s-0.227 0.508-0.508 0.508v0zM16.465 0.508c0 0.281-0.227 0.508-0.508 0.508s-0.508-0.227-0.508-0.508v0c0-0.281 0.227-0.508 0.508-0.508s0.508 0.227 0.508 0.508v0zM0.515 16.457c-0.281 0-0.508-0.227-0.508-0.508s0.227-0.508 0.508-0.508v0c0.281 0 0.508 0.227 0.508 0.508s-0.227 0.508-0.508 0.508v0z"></path>
</symbol>
<symbol id="icon-plus" viewBox="0 0 32 32">
<path fill="none" stroke="#fff" style="stroke: var(--color1, #fff)" stroke-linejoin="round" stroke-linecap="round" stroke-miterlimit="4" stroke-width="2.6667" d="M16 6.667v18.667M6.667 16h18.667"></path>
</symbol>
<symbol id="twitter-icon" viewBox="0 0 32 32">
<path d="M32 7.075c-1.175 0.525-2.444 0.875-3.769 1.031 1.356-0.813 2.394-2.1 2.887-3.631-1.269 0.75-2.675 1.3-4.169 1.594-1.2-1.275-2.906-2.069-4.794-2.069-3.625 0-6.563 2.938-6.563 6.563 0 0.512 0.056 1.012 0.169 1.494-5.456-0.275-10.294-2.888-13.531-6.862-0.563 0.969-0.887 2.1-0.887 3.3 0 2.275 1.156 4.287 2.919 5.463-1.075-0.031-2.087-0.331-2.975-0.819 0 0.025 0 0.056 0 0.081 0 3.181 2.263 5.838 5.269 6.437-0.55 0.15-1.131 0.231-1.731 0.231-0.425 0-0.831-0.044-1.237-0.119 0.838 2.606 3.263 4.506 6.131 4.563-2.25 1.762-5.075 2.813-8.156 2.813-0.531 0-1.050-0.031-1.569-0.094 2.913 1.869 6.362 2.95 10.069 2.95 12.075 0 18.681-10.006 18.681-18.681 0-0.287-0.006-0.569-0.019-0.85 1.281-0.919 2.394-2.075 3.275-3.394z"></path>
</symbol>
<symbol id="discord-icon" viewBox="0 0 40 32">
<path d="M34.218 3.633c-2.376-1.121-5.137-2.008-8.026-2.522l-0.201-0.030c-0.007-0.001-0.015-0.002-0.024-0.002-0.047 0-0.088 0.026-0.109 0.064l-0 0.001c-0.354 0.632-0.748 1.457-1.024 2.105-1.389-0.222-2.99-0.349-4.621-0.349s-3.232 0.127-4.794 0.371l0.173-0.022c-0.363-0.849-0.711-1.541-1.094-2.209l0.055 0.104c-0.023-0.039-0.064-0.064-0.112-0.064-0.008 0-0.015 0.001-0.022 0.002l0.001-0c-3.090 0.543-5.851 1.429-8.431 2.637l0.204-0.086c-0.023 0.010-0.041 0.026-0.054 0.047l-0 0.001c-5.241 7.828-6.678 15.464-5.972 23.006 0.004 0.038 0.024 0.072 0.052 0.094l0 0c2.884 2.158 6.238 3.897 9.856 5.039l0.237 0.065c0.011 0.003 0.024 0.005 0.037 0.005 0.043 0 0.081-0.020 0.105-0.052l0-0c0.778-1.061 1.472-2.181 2.065-3.358 0.035-0.069 0.002-0.152-0.069-0.179-1.23-0.474-2.268-0.979-3.257-1.559l0.104 0.056c-0.039-0.023-0.065-0.065-0.065-0.112 0-0.042 0.020-0.079 0.051-0.103l0-0c0.212-0.158 0.424-0.323 0.627-0.49 0.021-0.018 0.049-0.028 0.079-0.028 0.019 0 0.037 0.004 0.053 0.012l-0.001-0c6.614 3.020 13.777 3.020 20.313 0 0.016-0.008 0.035-0.013 0.055-0.013 0.030 0 0.057 0.010 0.079 0.028l-0-0c0.202 0.167 0.413 0.333 0.627 0.492 0.074 0.056 0.067 0.168-0.010 0.216-1.007 0.589-2.055 1.085-3.155 1.501-0.049 0.019-0.083 0.066-0.083 0.121 0 0.022 0.005 0.042 0.015 0.060l-0-0.001c0.606 1.176 1.3 2.296 2.063 3.357 0.023 0.033 0.062 0.054 0.105 0.054 0.013 0 0.026-0.002 0.038-0.006l-0.001 0c3.862-1.202 7.22-2.942 10.196-5.166l-0.088 0.063c0.030-0.021 0.050-0.054 0.054-0.092l0-0.001c0.842-8.719-1.411-16.293-5.977-23.006-0.011-0.022-0.029-0.039-0.052-0.049l-0.001-0zM13.507 22.093c-1.991 0-3.633-1.827-3.633-4.072 0-2.247 1.61-4.076 3.633-4.076 2.038 0 3.665 1.846 3.633 4.076 0 2.245-1.61 4.072-3.633 4.072zM26.939 22.093c-1.992 0-3.633-1.827-3.633-4.072 0-2.247 1.608-4.076 3.633-4.076 2.038 0 3.665 1.846 3.633 4.076 0 2.245-1.593 4.072-3.633 4.072z"></path>
</symbol>
</defs>
</svg>
